<mxfile host="app.diagrams.net" modified="2024-06-02T13:47:48.648Z" agent="Mozilla/5.0 (Windows NT 10.0; Win64; x64) AppleWebKit/537.36 (KHTML, like Gecko) Chrome/125.0.0.0 Safari/537.36" etag="W3Rbfy9gyv4qJ56GUDzY" version="24.4.0" type="device">
  <diagram name="Page-1" id="k4TutjeIwPu_uA6B8cUq">
    <mxGraphModel dx="1687" dy="887" grid="1" gridSize="10" guides="1" tooltips="1" connect="1" arrows="1" fold="1" page="1" pageScale="1" pageWidth="850" pageHeight="1100" math="0" shadow="0">
      <root>
        <mxCell id="0" />
        <mxCell id="1" parent="0" />
        <mxCell id="GlNdOihXwLXv4A8LhxyN-1" value="" style="rounded=0;whiteSpace=wrap;html=1;" vertex="1" parent="1">
          <mxGeometry x="20" y="10" width="60" height="60" as="geometry" />
        </mxCell>
        <mxCell id="GlNdOihXwLXv4A8LhxyN-2" value="" style="rounded=1;whiteSpace=wrap;html=1;" vertex="1" parent="1">
          <mxGeometry x="630" y="20" width="90" height="40" as="geometry" />
        </mxCell>
        <mxCell id="GlNdOihXwLXv4A8LhxyN-3" value="" style="rounded=1;whiteSpace=wrap;html=1;" vertex="1" parent="1">
          <mxGeometry x="740" y="20" width="90" height="40" as="geometry" />
        </mxCell>
        <mxCell id="GlNdOihXwLXv4A8LhxyN-4" value="" style="endArrow=none;html=1;rounded=0;entryX=0;entryY=0;entryDx=0;entryDy=0;exitX=1;exitY=1;exitDx=0;exitDy=0;" edge="1" parent="1" source="GlNdOihXwLXv4A8LhxyN-1" target="GlNdOihXwLXv4A8LhxyN-1">
          <mxGeometry width="50" height="50" relative="1" as="geometry">
            <mxPoint x="410" y="320" as="sourcePoint" />
            <mxPoint x="460" y="270" as="targetPoint" />
          </mxGeometry>
        </mxCell>
        <mxCell id="GlNdOihXwLXv4A8LhxyN-5" value="" style="endArrow=none;html=1;rounded=0;exitX=0;exitY=1;exitDx=0;exitDy=0;entryX=1;entryY=0;entryDx=0;entryDy=0;" edge="1" parent="1" source="GlNdOihXwLXv4A8LhxyN-1" target="GlNdOihXwLXv4A8LhxyN-1">
          <mxGeometry width="50" height="50" relative="1" as="geometry">
            <mxPoint x="410" y="320" as="sourcePoint" />
            <mxPoint x="460" y="270" as="targetPoint" />
          </mxGeometry>
        </mxCell>
        <mxCell id="GlNdOihXwLXv4A8LhxyN-9" value="&lt;font style=&quot;font-size: 19px;&quot;&gt;photoStockage&lt;/font&gt;" style="text;html=1;align=center;verticalAlign=middle;whiteSpace=wrap;rounded=0;" vertex="1" parent="1">
          <mxGeometry x="80" y="12.5" width="150" height="55" as="geometry" />
        </mxCell>
        <mxCell id="GlNdOihXwLXv4A8LhxyN-11" value="&lt;font style=&quot;font-size: 14px;&quot;&gt;Sign Up&lt;/font&gt;" style="text;html=1;align=center;verticalAlign=middle;whiteSpace=wrap;rounded=0;" vertex="1" parent="1">
          <mxGeometry x="644" y="27" width="60" height="30" as="geometry" />
        </mxCell>
        <mxCell id="GlNdOihXwLXv4A8LhxyN-12" value="&lt;font style=&quot;font-size: 14px;&quot;&gt;Login&lt;/font&gt;" style="text;html=1;align=center;verticalAlign=middle;whiteSpace=wrap;rounded=0;" vertex="1" parent="1">
          <mxGeometry x="755" y="25" width="60" height="30" as="geometry" />
        </mxCell>
        <mxCell id="GlNdOihXwLXv4A8LhxyN-13" value="Home" style="text;html=1;align=center;verticalAlign=middle;whiteSpace=wrap;rounded=0;fontSize=15;" vertex="1" parent="1">
          <mxGeometry x="310" y="25" width="60" height="30" as="geometry" />
        </mxCell>
        <mxCell id="GlNdOihXwLXv4A8LhxyN-14" value="About" style="text;html=1;align=center;verticalAlign=middle;whiteSpace=wrap;rounded=0;fontSize=15;" vertex="1" parent="1">
          <mxGeometry x="380" y="25" width="60" height="30" as="geometry" />
        </mxCell>
        <mxCell id="GlNdOihXwLXv4A8LhxyN-15" value="Contact Us" style="text;html=1;align=center;verticalAlign=middle;whiteSpace=wrap;rounded=0;fontSize=15;" vertex="1" parent="1">
          <mxGeometry x="445" y="25" width="95" height="30" as="geometry" />
        </mxCell>
        <mxCell id="GlNdOihXwLXv4A8LhxyN-16" value="" style="rounded=1;whiteSpace=wrap;html=1;" vertex="1" parent="1">
          <mxGeometry x="20" y="320" width="90" height="40" as="geometry" />
        </mxCell>
        <mxCell id="GlNdOihXwLXv4A8LhxyN-17" value="" style="rounded=1;whiteSpace=wrap;html=1;" vertex="1" parent="1">
          <mxGeometry x="130" y="320" width="90" height="40" as="geometry" />
        </mxCell>
        <mxCell id="GlNdOihXwLXv4A8LhxyN-18" value="&lt;font style=&quot;font-size: 14px;&quot;&gt;Sign Up&lt;/font&gt;" style="text;html=1;align=center;verticalAlign=middle;whiteSpace=wrap;rounded=0;" vertex="1" parent="1">
          <mxGeometry x="34" y="327" width="60" height="30" as="geometry" />
        </mxCell>
        <mxCell id="GlNdOihXwLXv4A8LhxyN-19" value="&lt;font style=&quot;font-size: 14px;&quot;&gt;Login&lt;/font&gt;" style="text;html=1;align=center;verticalAlign=middle;whiteSpace=wrap;rounded=0;" vertex="1" parent="1">
          <mxGeometry x="145" y="325" width="60" height="30" as="geometry" />
        </mxCell>
        <mxCell id="GlNdOihXwLXv4A8LhxyN-20" value="Share your photos. Download photos for your next project" style="text;html=1;align=center;verticalAlign=middle;whiteSpace=wrap;rounded=0;" vertex="1" parent="1">
          <mxGeometry x="20" y="140" width="320" height="30" as="geometry" />
        </mxCell>
        <mxCell id="GlNdOihXwLXv4A8LhxyN-21" value="" style="rounded=0;whiteSpace=wrap;html=1;" vertex="1" parent="1">
          <mxGeometry x="470" y="125" width="360" height="265" as="geometry" />
        </mxCell>
        <mxCell id="GlNdOihXwLXv4A8LhxyN-22" value="Start here." style="text;html=1;align=center;verticalAlign=middle;whiteSpace=wrap;rounded=0;" vertex="1" parent="1">
          <mxGeometry x="20" y="170" width="60" height="30" as="geometry" />
        </mxCell>
        <mxCell id="GlNdOihXwLXv4A8LhxyN-23" value="Do you have photos you want to share with others? Are you tired of copyright" style="text;html=1;align=center;verticalAlign=middle;whiteSpace=wrap;rounded=0;" vertex="1" parent="1">
          <mxGeometry x="10" y="210" width="450" height="30" as="geometry" />
        </mxCell>
        <mxCell id="GlNdOihXwLXv4A8LhxyN-24" value="protected material? Then this site is the place to be. Start now by signing up or" style="text;html=1;align=center;verticalAlign=middle;whiteSpace=wrap;rounded=0;" vertex="1" parent="1">
          <mxGeometry x="10" y="240" width="430" height="30" as="geometry" />
        </mxCell>
        <mxCell id="GlNdOihXwLXv4A8LhxyN-25" value="logging in." style="text;html=1;align=center;verticalAlign=middle;whiteSpace=wrap;rounded=0;" vertex="1" parent="1">
          <mxGeometry x="20" y="270" width="60" height="30" as="geometry" />
        </mxCell>
        <mxCell id="GlNdOihXwLXv4A8LhxyN-26" value="" style="rounded=0;whiteSpace=wrap;html=1;" vertex="1" parent="1">
          <mxGeometry x="20" y="470" width="165" height="220" as="geometry" />
        </mxCell>
        <mxCell id="GlNdOihXwLXv4A8LhxyN-27" value="" style="rounded=0;whiteSpace=wrap;html=1;" vertex="1" parent="1">
          <mxGeometry x="665" y="470" width="165" height="220" as="geometry" />
        </mxCell>
        <mxCell id="GlNdOihXwLXv4A8LhxyN-28" value="" style="rounded=0;whiteSpace=wrap;html=1;rotation=90;" vertex="1" parent="1">
          <mxGeometry x="226" y="440" width="165" height="220" as="geometry" />
        </mxCell>
        <mxCell id="GlNdOihXwLXv4A8LhxyN-29" value="" style="rounded=0;whiteSpace=wrap;html=1;rotation=90;" vertex="1" parent="1">
          <mxGeometry x="461" y="440" width="165" height="220" as="geometry" />
        </mxCell>
        <mxCell id="GlNdOihXwLXv4A8LhxyN-33" value="" style="rounded=0;whiteSpace=wrap;html=1;" vertex="1" parent="1">
          <mxGeometry x="257" y="710" width="165" height="220" as="geometry" />
        </mxCell>
        <mxCell id="GlNdOihXwLXv4A8LhxyN-34" value="" style="rounded=0;whiteSpace=wrap;html=1;" vertex="1" parent="1">
          <mxGeometry x="665" y="710" width="165" height="220" as="geometry" />
        </mxCell>
        <mxCell id="GlNdOihXwLXv4A8LhxyN-35" value="" style="rounded=0;whiteSpace=wrap;html=1;rotation=90;" vertex="1" parent="1">
          <mxGeometry x="50" y="680" width="165" height="220" as="geometry" />
        </mxCell>
        <mxCell id="GlNdOihXwLXv4A8LhxyN-36" value="" style="rounded=0;whiteSpace=wrap;html=1;rotation=90;" vertex="1" parent="1">
          <mxGeometry x="461" y="680" width="165" height="220" as="geometry" />
        </mxCell>
        <mxCell id="GlNdOihXwLXv4A8LhxyN-37" value="" style="rounded=0;whiteSpace=wrap;html=1;" vertex="1" parent="1">
          <mxGeometry x="20" y="950" width="165" height="220" as="geometry" />
        </mxCell>
        <mxCell id="GlNdOihXwLXv4A8LhxyN-38" value="" style="rounded=0;whiteSpace=wrap;html=1;" vertex="1" parent="1">
          <mxGeometry x="432" y="949" width="165" height="220" as="geometry" />
        </mxCell>
        <mxCell id="GlNdOihXwLXv4A8LhxyN-39" value="" style="rounded=0;whiteSpace=wrap;html=1;rotation=90;" vertex="1" parent="1">
          <mxGeometry x="226" y="921" width="165" height="220" as="geometry" />
        </mxCell>
        <mxCell id="GlNdOihXwLXv4A8LhxyN-40" value="" style="rounded=0;whiteSpace=wrap;html=1;rotation=90;" vertex="1" parent="1">
          <mxGeometry x="640" y="921" width="165" height="220" as="geometry" />
        </mxCell>
        <mxCell id="GlNdOihXwLXv4A8LhxyN-41" value="" style="rounded=0;whiteSpace=wrap;html=1;" vertex="1" parent="1">
          <mxGeometry x="34" y="480" width="136" height="160" as="geometry" />
        </mxCell>
        <mxCell id="GlNdOihXwLXv4A8LhxyN-42" value="" style="rounded=0;whiteSpace=wrap;html=1;" vertex="1" parent="1">
          <mxGeometry x="272" y="721" width="136" height="160" as="geometry" />
        </mxCell>
        <mxCell id="GlNdOihXwLXv4A8LhxyN-43" value="" style="rounded=0;whiteSpace=wrap;html=1;" vertex="1" parent="1">
          <mxGeometry x="679.5" y="480" width="136" height="160" as="geometry" />
        </mxCell>
        <mxCell id="GlNdOihXwLXv4A8LhxyN-44" value="" style="rounded=0;whiteSpace=wrap;html=1;" vertex="1" parent="1">
          <mxGeometry x="679" y="721" width="136" height="160" as="geometry" />
        </mxCell>
        <mxCell id="GlNdOihXwLXv4A8LhxyN-45" value="" style="rounded=0;whiteSpace=wrap;html=1;" vertex="1" parent="1">
          <mxGeometry x="34.5" y="960" width="136" height="160" as="geometry" />
        </mxCell>
        <mxCell id="GlNdOihXwLXv4A8LhxyN-46" value="" style="rounded=0;whiteSpace=wrap;html=1;" vertex="1" parent="1">
          <mxGeometry x="446.5" y="960" width="136" height="160" as="geometry" />
        </mxCell>
        <mxCell id="GlNdOihXwLXv4A8LhxyN-47" value="" style="rounded=0;whiteSpace=wrap;html=1;" vertex="1" parent="1">
          <mxGeometry x="213" y="481" width="187" height="109" as="geometry" />
        </mxCell>
        <mxCell id="GlNdOihXwLXv4A8LhxyN-48" value="" style="rounded=0;whiteSpace=wrap;html=1;" vertex="1" parent="1">
          <mxGeometry x="450" y="480" width="187" height="109" as="geometry" />
        </mxCell>
        <mxCell id="GlNdOihXwLXv4A8LhxyN-49" value="" style="rounded=0;whiteSpace=wrap;html=1;" vertex="1" parent="1">
          <mxGeometry x="39" y="721" width="187" height="109" as="geometry" />
        </mxCell>
        <mxCell id="GlNdOihXwLXv4A8LhxyN-50" value="" style="rounded=0;whiteSpace=wrap;html=1;" vertex="1" parent="1">
          <mxGeometry x="213" y="960" width="187" height="109" as="geometry" />
        </mxCell>
        <mxCell id="GlNdOihXwLXv4A8LhxyN-52" value="" style="rounded=0;whiteSpace=wrap;html=1;" vertex="1" parent="1">
          <mxGeometry x="629" y="960" width="187" height="109" as="geometry" />
        </mxCell>
        <mxCell id="GlNdOihXwLXv4A8LhxyN-53" value="Title" style="text;html=1;align=center;verticalAlign=middle;whiteSpace=wrap;rounded=0;fontSize=14;" vertex="1" parent="1">
          <mxGeometry x="72.5" y="650" width="60" height="30" as="geometry" />
        </mxCell>
        <mxCell id="GlNdOihXwLXv4A8LhxyN-54" value="Title" style="text;html=1;align=center;verticalAlign=middle;whiteSpace=wrap;rounded=0;fontSize=14;" vertex="1" parent="1">
          <mxGeometry x="717.5" y="650" width="60" height="30" as="geometry" />
        </mxCell>
        <mxCell id="GlNdOihXwLXv4A8LhxyN-55" value="Title" style="text;html=1;align=center;verticalAlign=middle;whiteSpace=wrap;rounded=0;fontSize=14;" vertex="1" parent="1">
          <mxGeometry x="309.5" y="891" width="60" height="30" as="geometry" />
        </mxCell>
        <mxCell id="GlNdOihXwLXv4A8LhxyN-56" value="Title" style="text;html=1;align=center;verticalAlign=middle;whiteSpace=wrap;rounded=0;fontSize=14;" vertex="1" parent="1">
          <mxGeometry x="717.5" y="891" width="60" height="30" as="geometry" />
        </mxCell>
        <mxCell id="GlNdOihXwLXv4A8LhxyN-57" value="Title" style="text;html=1;align=center;verticalAlign=middle;whiteSpace=wrap;rounded=0;fontSize=14;" vertex="1" parent="1">
          <mxGeometry x="72.5" y="1130" width="60" height="30" as="geometry" />
        </mxCell>
        <mxCell id="GlNdOihXwLXv4A8LhxyN-58" value="Title" style="text;html=1;align=center;verticalAlign=middle;whiteSpace=wrap;rounded=0;fontSize=14;" vertex="1" parent="1">
          <mxGeometry x="480" y="1130" width="60" height="30" as="geometry" />
        </mxCell>
        <mxCell id="GlNdOihXwLXv4A8LhxyN-59" value="Title" style="text;html=1;align=center;verticalAlign=middle;whiteSpace=wrap;rounded=0;fontSize=14;" vertex="1" parent="1">
          <mxGeometry x="278" y="598" width="60" height="30" as="geometry" />
        </mxCell>
        <mxCell id="GlNdOihXwLXv4A8LhxyN-60" value="Title" style="text;html=1;align=center;verticalAlign=middle;whiteSpace=wrap;rounded=0;fontSize=14;" vertex="1" parent="1">
          <mxGeometry x="513.5" y="596" width="60" height="30" as="geometry" />
        </mxCell>
        <mxCell id="GlNdOihXwLXv4A8LhxyN-61" value="Title" style="text;html=1;align=center;verticalAlign=middle;whiteSpace=wrap;rounded=0;fontSize=14;" vertex="1" parent="1">
          <mxGeometry x="510" y="834" width="60" height="30" as="geometry" />
        </mxCell>
        <mxCell id="GlNdOihXwLXv4A8LhxyN-62" value="" style="rounded=0;whiteSpace=wrap;html=1;" vertex="1" parent="1">
          <mxGeometry x="450" y="721" width="187" height="109" as="geometry" />
        </mxCell>
        <mxCell id="GlNdOihXwLXv4A8LhxyN-63" value="Title" style="text;html=1;align=center;verticalAlign=middle;whiteSpace=wrap;rounded=0;fontSize=14;" vertex="1" parent="1">
          <mxGeometry x="97" y="838" width="60" height="30" as="geometry" />
        </mxCell>
        <mxCell id="GlNdOihXwLXv4A8LhxyN-64" value="Title" style="text;html=1;align=center;verticalAlign=middle;whiteSpace=wrap;rounded=0;fontSize=14;" vertex="1" parent="1">
          <mxGeometry x="276" y="1076" width="60" height="30" as="geometry" />
        </mxCell>
        <mxCell id="GlNdOihXwLXv4A8LhxyN-65" value="Title" style="text;html=1;align=center;verticalAlign=middle;whiteSpace=wrap;rounded=0;fontSize=14;" vertex="1" parent="1">
          <mxGeometry x="692.5" y="1076" width="60" height="30" as="geometry" />
        </mxCell>
        <mxCell id="GlNdOihXwLXv4A8LhxyN-66" value="" style="endArrow=none;html=1;rounded=0;exitX=0;exitY=0;exitDx=0;exitDy=0;entryX=1;entryY=1;entryDx=0;entryDy=0;" edge="1" parent="1" source="GlNdOihXwLXv4A8LhxyN-41" target="GlNdOihXwLXv4A8LhxyN-41">
          <mxGeometry width="50" height="50" relative="1" as="geometry">
            <mxPoint x="410" y="850" as="sourcePoint" />
            <mxPoint x="460" y="800" as="targetPoint" />
          </mxGeometry>
        </mxCell>
        <mxCell id="GlNdOihXwLXv4A8LhxyN-67" value="" style="endArrow=none;html=1;rounded=0;exitX=0;exitY=0;exitDx=0;exitDy=0;entryX=1;entryY=1;entryDx=0;entryDy=0;" edge="1" parent="1">
          <mxGeometry width="50" height="50" relative="1" as="geometry">
            <mxPoint x="679" y="480" as="sourcePoint" />
            <mxPoint x="815" y="640" as="targetPoint" />
          </mxGeometry>
        </mxCell>
        <mxCell id="GlNdOihXwLXv4A8LhxyN-68" value="" style="endArrow=none;html=1;rounded=0;exitX=0;exitY=0;exitDx=0;exitDy=0;entryX=1;entryY=1;entryDx=0;entryDy=0;" edge="1" parent="1">
          <mxGeometry width="50" height="50" relative="1" as="geometry">
            <mxPoint x="272" y="721" as="sourcePoint" />
            <mxPoint x="408" y="881" as="targetPoint" />
          </mxGeometry>
        </mxCell>
        <mxCell id="GlNdOihXwLXv4A8LhxyN-69" value="" style="endArrow=none;html=1;rounded=0;exitX=0;exitY=0;exitDx=0;exitDy=0;entryX=1;entryY=1;entryDx=0;entryDy=0;" edge="1" parent="1">
          <mxGeometry width="50" height="50" relative="1" as="geometry">
            <mxPoint x="680" y="721" as="sourcePoint" />
            <mxPoint x="816" y="881" as="targetPoint" />
          </mxGeometry>
        </mxCell>
        <mxCell id="GlNdOihXwLXv4A8LhxyN-70" value="" style="endArrow=none;html=1;rounded=0;exitX=0;exitY=0;exitDx=0;exitDy=0;entryX=1;entryY=1;entryDx=0;entryDy=0;" edge="1" parent="1">
          <mxGeometry width="50" height="50" relative="1" as="geometry">
            <mxPoint x="34" y="960" as="sourcePoint" />
            <mxPoint x="170" y="1120" as="targetPoint" />
          </mxGeometry>
        </mxCell>
        <mxCell id="GlNdOihXwLXv4A8LhxyN-71" value="" style="endArrow=none;html=1;rounded=0;exitX=0;exitY=0;exitDx=0;exitDy=0;entryX=1;entryY=1;entryDx=0;entryDy=0;" edge="1" parent="1">
          <mxGeometry width="50" height="50" relative="1" as="geometry">
            <mxPoint x="446.5" y="960" as="sourcePoint" />
            <mxPoint x="582.5" y="1120" as="targetPoint" />
          </mxGeometry>
        </mxCell>
        <mxCell id="GlNdOihXwLXv4A8LhxyN-72" value="" style="endArrow=none;html=1;rounded=0;entryX=1;entryY=0;entryDx=0;entryDy=0;exitX=0;exitY=1;exitDx=0;exitDy=0;" edge="1" parent="1" source="GlNdOihXwLXv4A8LhxyN-41" target="GlNdOihXwLXv4A8LhxyN-41">
          <mxGeometry width="50" height="50" relative="1" as="geometry">
            <mxPoint x="410" y="850" as="sourcePoint" />
            <mxPoint x="460" y="800" as="targetPoint" />
          </mxGeometry>
        </mxCell>
        <mxCell id="GlNdOihXwLXv4A8LhxyN-73" value="" style="endArrow=none;html=1;rounded=0;entryX=1;entryY=0;entryDx=0;entryDy=0;exitX=0;exitY=1;exitDx=0;exitDy=0;" edge="1" parent="1">
          <mxGeometry width="50" height="50" relative="1" as="geometry">
            <mxPoint x="679" y="641" as="sourcePoint" />
            <mxPoint x="815" y="481" as="targetPoint" />
          </mxGeometry>
        </mxCell>
        <mxCell id="GlNdOihXwLXv4A8LhxyN-74" value="" style="endArrow=none;html=1;rounded=0;entryX=1;entryY=0;entryDx=0;entryDy=0;exitX=0;exitY=1;exitDx=0;exitDy=0;" edge="1" parent="1">
          <mxGeometry width="50" height="50" relative="1" as="geometry">
            <mxPoint x="271.5" y="881" as="sourcePoint" />
            <mxPoint x="407.5" y="721" as="targetPoint" />
          </mxGeometry>
        </mxCell>
        <mxCell id="GlNdOihXwLXv4A8LhxyN-75" value="" style="endArrow=none;html=1;rounded=0;entryX=1;entryY=0;entryDx=0;entryDy=0;exitX=0;exitY=1;exitDx=0;exitDy=0;" edge="1" parent="1">
          <mxGeometry width="50" height="50" relative="1" as="geometry">
            <mxPoint x="679.5" y="881" as="sourcePoint" />
            <mxPoint x="815.5" y="721" as="targetPoint" />
          </mxGeometry>
        </mxCell>
        <mxCell id="GlNdOihXwLXv4A8LhxyN-76" value="" style="endArrow=none;html=1;rounded=0;entryX=1;entryY=0;entryDx=0;entryDy=0;exitX=0;exitY=1;exitDx=0;exitDy=0;" edge="1" parent="1">
          <mxGeometry width="50" height="50" relative="1" as="geometry">
            <mxPoint x="34" y="1120" as="sourcePoint" />
            <mxPoint x="170" y="960" as="targetPoint" />
          </mxGeometry>
        </mxCell>
        <mxCell id="GlNdOihXwLXv4A8LhxyN-77" value="" style="endArrow=none;html=1;rounded=0;entryX=1;entryY=0;entryDx=0;entryDy=0;exitX=0;exitY=1;exitDx=0;exitDy=0;" edge="1" parent="1">
          <mxGeometry width="50" height="50" relative="1" as="geometry">
            <mxPoint x="446.5" y="1120" as="sourcePoint" />
            <mxPoint x="582.5" y="960" as="targetPoint" />
          </mxGeometry>
        </mxCell>
        <mxCell id="GlNdOihXwLXv4A8LhxyN-78" value="" style="endArrow=none;html=1;rounded=0;entryX=0;entryY=0;entryDx=0;entryDy=0;exitX=1;exitY=1;exitDx=0;exitDy=0;" edge="1" parent="1" source="GlNdOihXwLXv4A8LhxyN-47" target="GlNdOihXwLXv4A8LhxyN-47">
          <mxGeometry width="50" height="50" relative="1" as="geometry">
            <mxPoint x="410" y="850" as="sourcePoint" />
            <mxPoint x="460" y="800" as="targetPoint" />
          </mxGeometry>
        </mxCell>
        <mxCell id="GlNdOihXwLXv4A8LhxyN-79" value="" style="endArrow=none;html=1;rounded=0;entryX=0;entryY=1;entryDx=0;entryDy=0;exitX=1;exitY=0;exitDx=0;exitDy=0;" edge="1" parent="1" source="GlNdOihXwLXv4A8LhxyN-47" target="GlNdOihXwLXv4A8LhxyN-47">
          <mxGeometry width="50" height="50" relative="1" as="geometry">
            <mxPoint x="410" y="850" as="sourcePoint" />
            <mxPoint x="460" y="800" as="targetPoint" />
          </mxGeometry>
        </mxCell>
        <mxCell id="GlNdOihXwLXv4A8LhxyN-80" value="" style="endArrow=none;html=1;rounded=0;entryX=0;entryY=0;entryDx=0;entryDy=0;exitX=1;exitY=1;exitDx=0;exitDy=0;" edge="1" parent="1">
          <mxGeometry width="50" height="50" relative="1" as="geometry">
            <mxPoint x="636" y="590" as="sourcePoint" />
            <mxPoint x="449" y="481" as="targetPoint" />
          </mxGeometry>
        </mxCell>
        <mxCell id="GlNdOihXwLXv4A8LhxyN-81" value="" style="endArrow=none;html=1;rounded=0;entryX=0;entryY=1;entryDx=0;entryDy=0;exitX=1;exitY=0;exitDx=0;exitDy=0;" edge="1" parent="1">
          <mxGeometry width="50" height="50" relative="1" as="geometry">
            <mxPoint x="636" y="481" as="sourcePoint" />
            <mxPoint x="449" y="590" as="targetPoint" />
          </mxGeometry>
        </mxCell>
        <mxCell id="GlNdOihXwLXv4A8LhxyN-82" value="" style="endArrow=none;html=1;rounded=0;entryX=0;entryY=0;entryDx=0;entryDy=0;exitX=1;exitY=1;exitDx=0;exitDy=0;" edge="1" parent="1">
          <mxGeometry width="50" height="50" relative="1" as="geometry">
            <mxPoint x="226" y="830" as="sourcePoint" />
            <mxPoint x="39" y="721" as="targetPoint" />
          </mxGeometry>
        </mxCell>
        <mxCell id="GlNdOihXwLXv4A8LhxyN-83" value="" style="endArrow=none;html=1;rounded=0;entryX=0;entryY=1;entryDx=0;entryDy=0;exitX=1;exitY=0;exitDx=0;exitDy=0;" edge="1" parent="1">
          <mxGeometry width="50" height="50" relative="1" as="geometry">
            <mxPoint x="226" y="721" as="sourcePoint" />
            <mxPoint x="39" y="830" as="targetPoint" />
          </mxGeometry>
        </mxCell>
        <mxCell id="GlNdOihXwLXv4A8LhxyN-84" value="" style="endArrow=none;html=1;rounded=0;entryX=0;entryY=0;entryDx=0;entryDy=0;exitX=1;exitY=1;exitDx=0;exitDy=0;" edge="1" parent="1">
          <mxGeometry width="50" height="50" relative="1" as="geometry">
            <mxPoint x="637" y="830" as="sourcePoint" />
            <mxPoint x="450" y="721" as="targetPoint" />
          </mxGeometry>
        </mxCell>
        <mxCell id="GlNdOihXwLXv4A8LhxyN-85" value="" style="endArrow=none;html=1;rounded=0;entryX=0;entryY=1;entryDx=0;entryDy=0;exitX=1;exitY=0;exitDx=0;exitDy=0;" edge="1" parent="1">
          <mxGeometry width="50" height="50" relative="1" as="geometry">
            <mxPoint x="637" y="721" as="sourcePoint" />
            <mxPoint x="450" y="830" as="targetPoint" />
          </mxGeometry>
        </mxCell>
        <mxCell id="GlNdOihXwLXv4A8LhxyN-86" value="" style="endArrow=none;html=1;rounded=0;entryX=0;entryY=0;entryDx=0;entryDy=0;exitX=1;exitY=1;exitDx=0;exitDy=0;" edge="1" parent="1">
          <mxGeometry width="50" height="50" relative="1" as="geometry">
            <mxPoint x="402" y="1069" as="sourcePoint" />
            <mxPoint x="215" y="960" as="targetPoint" />
          </mxGeometry>
        </mxCell>
        <mxCell id="GlNdOihXwLXv4A8LhxyN-87" value="" style="endArrow=none;html=1;rounded=0;entryX=0;entryY=1;entryDx=0;entryDy=0;exitX=1;exitY=0;exitDx=0;exitDy=0;" edge="1" parent="1">
          <mxGeometry width="50" height="50" relative="1" as="geometry">
            <mxPoint x="402" y="960" as="sourcePoint" />
            <mxPoint x="215" y="1069" as="targetPoint" />
          </mxGeometry>
        </mxCell>
        <mxCell id="GlNdOihXwLXv4A8LhxyN-88" value="" style="endArrow=none;html=1;rounded=0;entryX=0;entryY=0;entryDx=0;entryDy=0;exitX=1;exitY=1;exitDx=0;exitDy=0;" edge="1" parent="1">
          <mxGeometry width="50" height="50" relative="1" as="geometry">
            <mxPoint x="817" y="1069" as="sourcePoint" />
            <mxPoint x="630" y="960" as="targetPoint" />
          </mxGeometry>
        </mxCell>
        <mxCell id="GlNdOihXwLXv4A8LhxyN-89" value="" style="endArrow=none;html=1;rounded=0;entryX=0;entryY=1;entryDx=0;entryDy=0;exitX=1;exitY=0;exitDx=0;exitDy=0;" edge="1" parent="1">
          <mxGeometry width="50" height="50" relative="1" as="geometry">
            <mxPoint x="817" y="960" as="sourcePoint" />
            <mxPoint x="630" y="1069" as="targetPoint" />
          </mxGeometry>
        </mxCell>
        <mxCell id="GlNdOihXwLXv4A8LhxyN-90" value="" style="endArrow=none;html=1;rounded=0;entryX=1;entryY=0;entryDx=0;entryDy=0;exitX=0;exitY=1;exitDx=0;exitDy=0;" edge="1" parent="1" source="GlNdOihXwLXv4A8LhxyN-21" target="GlNdOihXwLXv4A8LhxyN-21">
          <mxGeometry width="50" height="50" relative="1" as="geometry">
            <mxPoint x="410" y="500" as="sourcePoint" />
            <mxPoint x="460" y="450" as="targetPoint" />
          </mxGeometry>
        </mxCell>
        <mxCell id="GlNdOihXwLXv4A8LhxyN-91" value="" style="endArrow=none;html=1;rounded=0;entryX=0;entryY=0;entryDx=0;entryDy=0;exitX=1;exitY=1;exitDx=0;exitDy=0;" edge="1" parent="1" source="GlNdOihXwLXv4A8LhxyN-21" target="GlNdOihXwLXv4A8LhxyN-21">
          <mxGeometry width="50" height="50" relative="1" as="geometry">
            <mxPoint x="410" y="500" as="sourcePoint" />
            <mxPoint x="460" y="450" as="targetPoint" />
          </mxGeometry>
        </mxCell>
      </root>
    </mxGraphModel>
  </diagram>
</mxfile>
